<svg xmlns="http://www.w3.org/2000/svg" xml:space="preserve" width="2000" height="1500" data-id="lg_qkDhkbaVH7mgjMZ5Tc" data-version="1" viewBox="0 0 2000 1500"><path fill="#326580" stroke="transparent" d="M0 0h2000v1500H0z"/><g data-padding="20"><g transform="translate(-1537.016 -1147.631)scale(2.4517)"><rect width="451" height="259.708" x="405.966" y="248.803" fill="none" rx="0" ry="0" transform="translate(397.64 403.76)"/><path fill="#2c2f33" d="m892.286 688.867 2.96 87.56h-22.14v-45.68h-1.26l-8.32 45.68h-22.7l-7.9-45.68h-1.41v45.68h-21.86l2.97-87.56h31.72l7.9 47.38h1.12l7.62-47.38Zm19.8 9.17q8.11-10.58 26.58-10.58t26.44 10.44q7.96 10.43 7.96 33.91 0 23.47-8.17 34.75-8.18 11.28-26.51 11.28t-26.37-11.14q-8.04-11.13-8.04-34.61t8.11-34.05m36.73 33.84q0-12.97-2.04-17.56-2.05-4.58-8.32-4.58-6.28 0-8.11 4.58-1.83 4.59-1.83 17.42v3.38q0 13.68 2.04 17.98 2.05 4.3 8.32 4.3 6.28 0 8.11-4.09t1.83-16.92Zm98.98-1.13q0 45.68-36.09 45.68h-29.05v-87.56h29.61q19.32 0 27.43 10.79 8.1 10.79 8.1 31.09m-36.52 25.38q7.48 0 9.66-5.29 2.19-5.29 2.19-17.76 0-12.48-2.33-17.7-2.32-5.22-9.94-5.22h-4.23v45.97Zm70.22-8.46q0 4.37 1.84 6.49 1.83 2.11 5.99 2.11t5.78-2.04q1.62-2.05 1.62-6.7v-58.66h24.25v60.07q0 15.09-8.25 21.99-8.24 6.91-24.25 6.91-16 0-23.83-6.83-7.82-6.84-7.82-21.79v-60.35h24.67Zm97.87 9.16-1.41 19.6h-44.56v-87.56h24.11v67.96Zm10.36-58.79q8.11-10.58 26.58-10.58t26.44 10.44q7.96 10.43 7.96 33.91 0 23.47-8.18 34.75-8.17 11.28-26.5 11.28t-26.37-11.14q-8.04-11.13-8.04-34.61t8.11-34.05m36.73 33.84q0-12.97-2.04-17.56-2.05-4.58-8.32-4.58-6.28 0-8.11 4.58-1.83 4.59-1.83 17.42v3.38q0 13.68 2.04 17.98 2.05 4.3 8.32 4.3t8.11-4.09q1.83-4.09 1.83-16.92Zm-183.77 57.37v87.56h-23.55v-65.14h-10.15v-14.81l14.38-7.61Z"/><rect width="453" height="264.759" x="404.966" y="246.278" fill="none" rx="0" ry="0" transform="translate(408.02 406.12)"/><path fill="#5865f2" stroke="#2c2f33" stroke-width="2.87" d="m902.726 689.987 2.98 88.18h-22.29v-46.01h-1.28l-8.38 46.01h-22.86l-7.95-46.01h-1.42v46.01h-22.01l2.98-88.18h31.95l7.95 47.71h1.14l7.67-47.71Zm19.94 9.23q8.17-10.65 26.77-10.65t26.62 10.51q8.03 10.51 8.03 34.15t-8.24 35-26.7 11.36-26.55-11.22q-8.09-11.21-8.09-34.86 0-23.64 8.16-34.29Zm36.99 34.08q0-13.06-2.06-17.68-2.06-4.61-8.37-4.61-6.32 0-8.17 4.61-1.85 4.62-1.85 17.54v3.41q0 13.77 2.06 18.1t8.38 4.33 8.17-4.12q1.84-4.11 1.84-17.04Zm99.7-1.14q0 46.01-36.36 46.01h-29.25v-88.18h29.82q19.46 0 27.62 10.86 8.17 10.87 8.17 31.31Zm-36.78 25.56q7.52 0 9.73-5.32 2.2-5.33 2.2-17.89 0-12.57-2.35-17.82-2.34-5.26-10.01-5.26h-4.26v46.29Zm70.71-8.52q0 4.41 1.85 6.54t6.04 2.13q4.18 0 5.82-2.06 1.63-2.06 1.63-6.75v-59.07h24.42v60.49q0 15.2-8.3 22.15-8.31 6.96-24.43 6.96-16.11 0-23.99-6.88-7.89-6.89-7.89-21.94v-60.78h24.85Zm98.54 9.23-1.42 19.74h-44.87v-88.18h24.28v68.44Zm10.44-59.21q8.16-10.65 26.77-10.65 18.6 0 26.62 10.51t8.02 34.15-8.23 35q-8.24 11.36-26.7 11.36t-26.55-11.22q-8.1-11.21-8.1-34.86 0-23.64 8.17-34.29Zm36.99 34.08q0-13.06-2.06-17.68-2.06-4.61-8.38-4.61t-8.16 4.61q-1.85 4.62-1.85 17.54v3.41q0 13.77 2.06 18.1t8.38 4.33 8.16-4.12q1.85-4.11 1.85-17.04Zm-185.06 60.99v88.18h-23.72v-65.6h-10.22v-14.91l14.48-7.67Z"/><rect width="182.93" height="97.18" x="540.001" y="330.067" fill="none" rx="0" ry="0" transform="translate(400.01 560.4)"/><path fill="#2c2f33" d="M965.636 938.987q0-1.04-1.37-1.77-1.38-.73-3.19-.73-1.8 0-3.52.86 2.92 2.67 6.45 2.67.77 0 1.2-.39t.43-.64m4.04-14.37.18-2.32q0-1.89-1.42-3.57-1.42-1.67-3.83-1.67-4.13 0-7.48 3.69-3.36 3.7-3.36 7.87t2.15 7.01q3.7-1.63 6.88-1.63 3.19 0 5.12 1.07 1.94 1.08 1.94 3.23t-2.11 3.18-4.69 1.03q-4.81 0-8.77-2.66-2.06 2.15-3.31 5.07t-1.25 5.42q0 5.07 3.27 9.29 3.27 4.21 8.69 4.21 11.35 0 18.49-14.96 2.4-4.91 3.05-4.91.64 0 .64.69 0 3.44-4.25 10.37-4.26 6.92-9.21 9.63-4.94 2.71-12.12 2.71t-11.31-4.22q-4.13-4.21-4.13-10.49 0-4.13 2.45-7.95 2.45-3.83 6.32-6.58-4.04-3.36-4.04-8.09 0-6.53 5.08-11.05 5.07-4.51 12.29-4.51 4.73 0 7.96 2.45 3.22 2.45 3.22 5.8 0 1.89-1.11 3.1-1.12 1.2-2.84 1.2-2.5 0-2.5-2.41"/><path fill="#2c2f33" d="m985.156 961.427.09 2.67q0 2.41-1.38 2.41-2.06 0-3.95-.56t-1.89-1.55.47-6.79q.47-5.81.47-8.73v-5.08q0-4.13.86-4.99t3.05-2.49q2.2-1.63 3.19-1.63t1.24.34q.26.34.26 1.29 0 4.56-1.72 8.6-.43 4.9-.43 6.79.35-.51 3.61-5.84 3.27-5.34 5.55-7.83t4.09-2.49q1.8 0 3.22 1.2t1.42 3.01q0 3.78-.82 11.14-.81 7.35-.81 9.29 0 1.93.51 1.93 1.46-.09 4.04-3.65 2.58-3.57 5.12-9.16t3.1-5.59.56.68q0 2.41-2.5 7.66-6.79 14.45-11.44 14.45-3.35 0-5.07-1.38-.6-.6-.6-3.14t.47-8.25q.47-5.72.47-8.56t-.99-2.84q-.98 0-5.2 5.89-4.21 5.89-4.47 7.53-.52 3.01-.52 5.67"/><path fill="#2c2f33" d="M1030.056 952.917q-2.67 7.05-4.95 10.32t-5.98 3.27q-3.69 0-6.23-3.19-2.54-3.18-2.54-10.14 0-6.97 3.91-12.3 3.92-5.33 10.28-5.33 1.29 0 3.1 1.07 1.8 1.08 3.18 2.62.26-.86 2.49-2.7 2.24-1.85 3.49-1.85 1.24 0 1.24 3.69 0 3.7-1.54 6.54-.86 5.76-.95 10.66 8.43-10.66 8.99-11.26t.99-.6q.86 0 .86.86 0 .51-.35 1.11-2.75 4.05-10.83 14.19-.52 10.24-.69 13.94-.43 10.92-3.06 15.35-2.62 4.43-9.33 4.43-2.92 0-5.46-1.77-2.53-1.76-2.53-6.1 0-4.35 3.31-8.9 3.31-4.56 12.08-14.02Zm-6.02-14.28q-2.41 0-5.12 3.74t-2.71 8.6 1.42 7.92q1.42 3.05 3.57 3.05t4.13-3.53q1.97-3.52 5.07-12.12.17-2.93.17-3.7-.69-1.29-2.84-2.62-2.15-1.34-3.69-1.34m4.81 36.64.43-8.43q-9.8 10.58-9.8 16.94 0 2.93 1.03 4.82t2.84 1.89q2.75 0 3.87-3.01t1.63-12.21"/><path fill="#2c2f33" d="M1048.626 966.507q-1.89 0-3.48-.48-1.59-.47-1.94-.9-.86-1.03-.86-10.71 0-9.67 2.15-26.27 1.81-13.67 8.43-13.67 1.55 0 2.24 1.67.69 1.68.69 3.23 0 11.18-6.8 25.02-.26 7.14-.26 12.43t.95 5.29q1.46-.09 4.04-3.65 2.58-3.57 5.12-9.16t3.09-5.59q.56 0 .56.68 0 2.41-2.49 7.66-6.79 14.45-11.44 14.45m5.08-46.36q0-2.75-.69-2.75-2.58 0-3.79 21.41 4.48-11.78 4.48-18.66"/><path fill="#2c2f33" d="M1060.586 924.017q0-1.55 1.63-2.66 1.63-1.12 2.92-1.12 2.33 0 2.33 2.66 0 2.67-1.38 4.61-1.38 1.93-3.87 1.93-1.63 0-1.63-5.42m2.49 42.49q-3.35 0-5.07-1.38-.61-.6-.61-4.3t.56-12.34.99-9.33 2.67-2.58q2.23-1.89 3.48-1.89t1.25 3.26q0 .86-.48 3.36-.47 2.49-1.07 3.61-1.12 2.84-1.12 14.88 0 2.32.52 2.32 1.46-.09 4.04-3.65 2.58-3.57 5.12-9.16 2.53-5.59 3.09-5.59t.56.68q0 2.41-2.49 7.66-6.8 14.45-11.44 14.45"/><path fill="#2c2f33" d="m1085.176 939.767.17-1.29q0-1.55-1.76-1.55t-3.4 2.28q-1.63 2.28-1.63 3.74t.17 2.32.39 1.42q.21.56.73 1.34.52.77.77 1.11l.95 1.21q.6.86.86 1.12 4.47-3.7 10.66-8.26.35-.26.78-.26.86 0 .86.95 0 .94-.78 1.46-5.5 3.53-10.4 7.65 1.89 2.76 1.89 6.02 0 3.27-2.49 5.59-2.5 2.33-6.37 2.33t-3.87-3.7q0-2.67 5.68-8.17-.43-.52-1.55-1.68t-1.68-1.85-1.33-1.8q-1.38-2.15-1.38-4.65 0-5.07 3.27-8.21t6.97-3.14q2.32 0 3.61 1.25 1.29 1.24 1.29 2.53 0 2.93-1.38 2.93-1.03 0-1.03-.69m-5.5 16.94q-3.44 3.44-3.44 5.55t2.15 2.11q1.29 0 2.15-1.04 1.89-2.58-.86-6.62"/><path fill="#2c2f33" d="m1097.476 961.427.09 2.67q0 2.41-1.38 2.41-2.06 0-3.96-.56-1.89-.56-1.89-1.55t.47-6.79q.48-5.81.48-8.73v-4.99q0-22.02 7.82-28.04 1.81-1.37 3.7-1.37.86 0 1.72 1.89t.86 4.9q0 7.4-2.49 13.85-2.5 6.45-5.08 9.89-.08 2.15-.08 6.7.34-.51 3.61-5.84 3.27-5.34 5.55-7.83t4.08-2.49q1.81 0 3.23 1.2t1.42 3.01q0 3.78-.82 11.14-.82 7.35-.82 9.29 0 1.93.52 1.93 1.46-.09 4.04-3.65 2.58-3.57 5.12-9.16 2.53-5.59 3.09-5.59t.56.68q0 2.41-2.49 7.66-6.8 14.45-11.44 14.45-3.35 0-5.07-1.38-.61-.6-.61-3.14t.48-8.25q.47-5.72.47-8.56t-.99-2.84-5.2 5.89q-4.22 5.89-4.47 7.53-.52 3.01-.52 5.67m5.59-38.27q0-3.61-.95-3.61-1.54 0-3.01 9.55-.77 5.07-1.11 11.78 5.07-10.58 5.07-17.72M963.34 644.253l70.937-35.46v-6.23l-83.36 41.69Zm6.211.018h50.836v-25.418Zm78.653 0h50.818l-50.818-25.418Zm69.452-9.344v-18.455h-36.929Zm0-64.726-36.946 18.473h36.946Z"/><path fill="#2c2f33" d="M1017.63 610.923h8.341v33.348h16.665v-33.348h75.037v-16.664h-66.697Zm-74.16-56.51v45.305h61.235V554.43Zm50.674 6.086.716 2.148h2.274l-1.844 1.36.716 2.166-1.862-1.342-1.843 1.342.716-2.166-1.862-1.342h2.291Zm1.844 14.517-1.844-1.343-1.843 1.36.716-2.183-1.862-1.342h2.291l.716-2.184.68 2.184h2.292l-1.844 1.342Zm0 8.789-1.844-1.343-1.843 1.343.716-2.166-1.862-1.343h2.291l.716-2.183.68 2.183h2.292l-1.844 1.343Zm-4.958 4.26-1.844-1.342-1.844 1.342.698-2.166-1.843-1.342h2.273l.716-2.184.716 2.184h2.273l-1.843 1.342Zm-5.173-4.26-1.844-1.343-1.862 1.343.716-2.166-1.843-1.343h2.273l.716-2.183.716 2.183h2.273l-1.843 1.343Zm-5.066 4.26-1.844-1.342-1.86 1.342.715-2.166-1.862-1.342h2.291l.716-2.184.698 2.184h2.292l-1.862 1.342Zm-5.245-4.26-1.843-1.343-1.844 1.343.716-2.166-1.862-1.343h2.291l.716-2.183.7 2.183h2.29l-1.86 1.343Zm-5.012 4.26-1.843-1.342-1.844 1.342.716-2.166-1.862-1.342h2.291l.716-2.184.7 2.184h2.272l-1.844 1.342Zm-5.065-4.26-1.844-1.343-1.844 1.343.716-2.166-1.86-1.343h2.29l.698-2.183.716 2.183h2.273l-1.844 1.343Zm-5.174 4.26-1.843-1.342-1.862 1.342.716-2.166-1.843-1.342h2.273l.716-2.184.716 2.184h2.273l-1.844 1.342Zm-5.065-4.26-1.844-1.343-1.862 1.343.716-2.166-1.86-1.343h2.308l.716-2.183.716 2.183h2.273l-1.86 1.343Zm-4.833-12.297h2.273l.716-2.184.716 2.184h2.273l-1.86 1.342.715 2.166-1.844-1.343-1.862 1.36.716-2.183Zm40.633-.95-1.844-1.342-1.844 1.343.698-2.184-1.843-1.342h2.273l.716-2.166.716 2.166h2.273l-1.843 1.342Zm0 8.7-1.844-1.342-1.844 1.342.698-2.184-1.843-1.342h2.273l.716-2.166.716 2.166h2.273l-1.843 1.342Zm-4.028-7.75-1.843 1.342.698 2.166-1.844-1.343-1.862 1.36.716-2.183-1.843-1.342h2.273l.716-2.184.716 2.184Zm-6.21 7.75-1.845-1.342-1.86 1.342.715-2.184-1.862-1.342h2.291l.716-2.166.698 2.166h2.292l-1.862 1.342Zm-.717-10.883.716 2.184-1.844-1.343-1.86 1.343.715-2.184-1.862-1.342h2.291l.716-2.166.698 2.166h2.292Zm-3.383 3.133-1.844 1.342.716 2.166-1.86-1.343-1.845 1.36.716-2.183-1.862-1.342h2.291l.716-2.184.7 2.184Zm-6.158 7.75-1.843-1.342-1.844 1.342.716-2.184-1.862-1.342h2.291l.716-2.166.7 2.166h2.272l-1.844 1.342Zm-.716-10.883.716 2.184-1.843-1.343-1.844 1.343.716-2.184-1.862-1.342h2.291l.716-2.166.7 2.166h2.272Zm-3.204 3.133-1.844 1.342.716 2.166-1.86-1.343-1.845 1.36.716-2.183-1.86-1.342h2.29l.716-2.184.698 2.184Zm-6.319 7.75-1.843-1.342-1.862 1.342.716-2.184-1.843-1.342h2.273l.716-2.166.716 2.166h2.273l-1.844 1.342Zm-.716-10.614.716 2.165-1.843-1.342-1.862 1.342.716-2.165-1.843-1.343h2.273l.716-2.184.716 2.184h2.273Zm28.91-10.472.715-2.184.716 2.184h2.273l-1.843 1.343.716 2.165-1.862-1.342-1.844 1.342.716-2.166-1.86-1.342Zm-4.476 2.31.716 2.183h2.291l-1.843 1.342.715 2.166-1.86-1.342-1.863 1.342.716-2.166-1.843-1.342h2.273Zm-5.764-2.292.716-2.184.698 2.184h2.291l-1.86 1.342.715 2.166-1.844-1.342-1.86 1.342.715-2.166-1.862-1.342Zm-4.529 2.29.716 2.185h2.274l-1.844 1.342.716 2.166-1.862-1.342-1.843 1.342.716-2.166-1.862-1.342h2.291Zm-5.728-2.29.716-2.184.716 2.184h2.274l-1.844 1.342.716 2.166-1.862-1.342-1.843 1.342.716-2.166-1.862-1.342Zm-4.35 2.29.717 2.185h2.273l-1.844 1.342.716 2.166-1.86-1.342-1.845 1.342.716-2.166-1.862-1.342h2.292Zm-5.888-2.29.716-2.184.716 2.184h2.273l-1.844 1.342.716 2.166-1.86-1.342-1.845 1.342.716-2.166-1.897-1.36Zm-4.368 2.29.716 2.185h2.291l-1.86 1.342.715 2.166-1.844-1.342-1.862 1.342.716-2.166-1.86-1.342h2.29Zm-5.728-2.29.716-2.184.716 2.184h2.291l-1.86 1.342.715 2.166-1.844-1.342-1.862 1.342.716-2.166-1.86-1.36Zm0 8.842.716-2.165.716 2.165h2.291l-1.86 1.343.715 2.184-1.844-1.343-1.862 1.343.716-2.184-1.843-1.342Zm0 8.7.716-2.166.716 2.166h2.291l-1.86 1.342.715 2.184-1.844-1.342-1.862 1.342.716-2.184-1.86-1.342Zm0 8.825.716-2.184.716 2.184h2.291l-1.86 1.342.715 2.184-1.862-1.343-1.844 1.343.716-2.184-1.86-1.342Zm2.578 12.35-1.862-1.342-1.844 1.36.716-2.183-1.86-1.343h2.29l.716-2.184.698 2.184h2.291l-1.86 1.343Zm3.15-5.817-1.844 1.343.716-2.184-1.86-1.343h2.29l.716-2.166.716 2.166h2.273l-1.86 1.343.715 2.184Zm6.927 5.836-1.843-1.36-1.862 1.36.716-2.184-1.862-1.343h2.292l.716-2.184.716 2.184h2.273l-1.844 1.343Zm3.33-5.836-1.844 1.343.716-2.184-1.86-1.343h2.29l.698-2.166.716 2.166h2.273l-1.844 1.343.716 2.184Zm6.91 5.836-1.844-1.36-1.844 1.36.716-2.184-1.862-1.343h2.291l.716-2.184.7 2.184h2.272l-1.844 1.343Zm3.168-5.997-1.844 1.343.716-2.184-1.862-1.343h2.291l.716-2.166.7 2.166h2.29l-1.86 1.343.714 2.183Zm7.088 6.158-1.844-1.36-1.86 1.36.715-2.184-1.862-1.343h2.291l.716-2.183.698 2.183h2.291l-1.86 1.343Zm3.222-5.997-1.862 1.343.716-2.184-1.843-1.343h2.273l.716-2.166.716 2.166h2.273l-1.843 1.343.715 2.184Zm7.017 5.836-1.844-1.36-1.844 1.36.698-2.184-1.843-1.343h2.273l.716-2.184.716 2.184h2.273l-1.843 1.343Zm3.114-5.836-1.843 1.343.716-2.184-1.862-1.343h2.291l.716-2.166.698 2.166h2.274l-1.844 1.343.716 2.184Zm6.91 5.836-1.844-1.36-1.844 1.36.716-2.184-1.86-1.343h2.29l.716-2.184.698 2.184h2.273l-1.843 1.343Zm-.716-11.027.716 2.184-1.844-1.343-1.844 1.343.716-2.184-1.86-1.342h2.29l.716-2.184.698 2.184h2.273Zm0-8.825.716 2.184-1.844-1.342-1.844 1.342.716-2.184-1.86-1.342h2.29l.716-2.166.698 2.166h2.273Zm0-8.7.716 2.185-1.844-1.343-1.844 1.343.716-2.184-1.86-1.342h2.29l.716-2.166.698 2.165h2.273Zm0-8.842.716 2.166-1.844-1.342-1.844 1.342.716-2.166-1.86-1.342h2.29l.716-2.184.698 2.184h2.273Zm-44.947 72.317h-11.92v5.96Zm-11.903-12.871v6.48h24.666l12.941-6.48Zm-.018-12.834v6.48h50.334l12.942-6.48Zm61.29-12.906v6.462h14.856l12.942-6.462Zm-.019-13.121v6.462h41.134l12.942-6.462Zm0-12.852v6.48h66.82l12.943-6.48Zm92.525-6.372 12.942-6.462h-105.449v6.462Z"/></g><path fill="transparent" stroke="transparent" stroke-width="2.563" d="M408.03 187.5h1183.94v1125H408.03z"/></g></svg>