<?xml version="1.0" encoding="UTF-8"?>
<svg xmlns="http://www.w3.org/2000/svg" xmlns:xlink="http://www.w3.org/1999/xlink" width="16px" height="25px" viewBox="0 0 16 24" version="1.1">
<g id="surface1">
<path style=" stroke:none;fill-rule:nonzero;fill:rgb(0%,0%,0%);fill-opacity:1;" d="M 2.667969 0.539062 C 2.480469 0.613281 2.394531 0.808594 2.25 1.476562 C 1.976562 2.730469 1.988281 2.71875 1.050781 3.011719 L 0.21875 3.28125 L 0.21875 5.796875 L 1.671875 5.882812 C 4.296875 6.023438 6.011719 6.484375 7.914062 7.574219 C 8.207031 7.75 8.460938 7.867188 8.492188 7.835938 C 8.558594 7.78125 8.261719 6.789062 8.078125 6.464844 C 7.878906 6.097656 7.59375 5.882812 6.511719 5.332031 C 5.476562 4.792969 3.933594 4.316406 3.257812 4.316406 C 2.675781 4.316406 2.742188 4.144531 3.34375 4.058594 C 4.886719 3.851562 6.382812 4.113281 7.867188 4.824219 C 8.742188 5.246094 9.058594 5.472656 9.902344 6.300781 C 11.332031 7.714844 11.957031 8.945312 12.242188 10.933594 C 12.371094 11.785156 12.273438 12.894531 11.988281 13.84375 C 11.890625 14.191406 11.835938 14.246094 11.648438 14.203125 C 10.949219 14.007812 10.511719 14.007812 10.03125 14.222656 L 9.53125 14.4375 L 9.628906 14.957031 C 9.878906 16.261719 9.191406 17.480469 8.207031 17.480469 C 8.042969 17.480469 7.976562 17.546875 7.976562 17.71875 C 7.976562 18.152344 7.519531 18.886719 7.015625 19.261719 C 6.328125 19.792969 5.203125 20.105469 4.273438 20.039062 C 2.480469 19.910156 1.550781 19.757812 0.894531 19.5 L 0.21875 19.21875 L 0.21875 19.703125 C 0.21875 20.191406 0.21875 20.191406 0.820312 20.460938 C 1.160156 20.601562 1.53125 20.71875 1.640625 20.71875 C 1.914062 20.71875 2.011719 20.945312 2.25 22.046875 C 2.46875 23.09375 2.480469 23.09375 4.371094 23.09375 C 6.078125 23.09375 6.296875 23.027344 6.425781 22.476562 C 6.875 20.621094 6.785156 20.804688 7.378906 20.601562 C 8 20.386719 8.011719 20.394531 8.851562 21.152344 C 9.769531 21.980469 9.574219 22.023438 11.507812 20.621094 C 12.03125 20.234375 12.480469 19.835938 12.511719 19.726562 C 12.558594 19.617188 12.394531 19.144531 12.140625 18.605469 L 11.695312 17.675781 L 12.042969 17.191406 L 12.382812 16.695312 L 13.496094 16.769531 C 14.351562 16.835938 14.632812 16.8125 14.722656 16.703125 C 14.863281 16.523438 15.738281 13.878906 15.738281 13.609375 C 15.738281 13.371094 15.648438 13.296875 14.808594 12.851562 C 13.824219 12.324219 13.757812 12.238281 13.792969 11.621094 L 13.824219 11.09375 L 14.675781 10.585938 C 15.136719 10.304688 15.574219 10.023438 15.648438 9.949219 C 15.8125 9.789062 14.808594 6.722656 14.546875 6.59375 C 14.449219 6.539062 14.03125 6.539062 13.605469 6.59375 C 12.316406 6.746094 12.296875 6.734375 11.976562 6.257812 C 11.824219 6.023438 11.695312 5.773438 11.695312 5.699219 C 11.695312 5.621094 11.867188 5.167969 12.078125 4.683594 C 12.285156 4.199219 12.4375 3.734375 12.40625 3.660156 C 12.316406 3.421875 9.824219 1.726562 9.574219 1.726562 C 9.441406 1.726562 9.027344 2.019531 8.632812 2.375 C 7.890625 3.042969 7.738281 3.097656 7.113281 2.871094 C 6.644531 2.707031 6.613281 2.632812 6.382812 1.585938 C 6.285156 1.121094 6.132812 0.679688 6.042969 0.59375 C 5.921875 0.464844 5.5625 0.433594 4.394531 0.441406 C 3.574219 0.441406 2.785156 0.484375 2.667969 0.539062 Z M 2.667969 0.539062 "/>
<path style=" stroke:none;fill-rule:nonzero;fill:rgb(0%,0%,0%);fill-opacity:1;" d="M 0.21875 6.355469 C 0.21875 6.527344 0.351562 6.582031 1.179688 6.691406 C 2.242188 6.832031 3.464844 7.058594 4.042969 7.230469 C 4.382812 7.328125 4.449219 7.304688 4.613281 7.101562 C 4.710938 6.960938 4.753906 6.808594 4.710938 6.765625 C 4.503906 6.5625 1.96875 6.160156 0.851562 6.152344 C 0.304688 6.152344 0.21875 6.183594 0.21875 6.355469 Z M 0.21875 6.355469 "/>
<path style=" stroke:none;fill-rule:nonzero;fill:rgb(0%,0%,0%);fill-opacity:1;" d="M 8.578125 6.875 C 8.742188 7.261719 8.863281 8.050781 8.832031 8.558594 L 8.796875 9.085938 L 9.324219 9.28125 C 9.921875 9.507812 10.546875 9.949219 10.722656 10.261719 C 10.796875 10.425781 10.796875 10.574219 10.722656 10.8125 C 10.65625 10.996094 10.621094 11.179688 10.65625 11.203125 C 10.777344 11.332031 11.246094 10.75 11.367188 10.304688 C 11.714844 9.054688 10.667969 7.46875 9.09375 6.863281 C 8.511719 6.648438 8.480469 6.648438 8.578125 6.875 Z M 8.578125 6.875 "/>
<path style=" stroke:none;fill-rule:nonzero;fill:rgb(0%,0%,0%);fill-opacity:1;" d="M 0.21875 7.15625 C 0.21875 7.390625 0.285156 7.425781 0.90625 7.542969 C 2.023438 7.757812 2.644531 7.898438 3.214844 8.050781 C 3.945312 8.253906 3.957031 8.253906 3.914062 7.855469 C 3.890625 7.574219 3.8125 7.5 3.550781 7.425781 C 3.125 7.304688 1.648438 7.058594 0.851562 6.960938 C 0.230469 6.894531 0.21875 6.894531 0.21875 7.15625 Z M 0.21875 7.15625 "/>
<path style=" stroke:none;fill-rule:nonzero;fill:rgb(0%,0%,0%);fill-opacity:1;" d="M 5.355469 6.980469 C 4.875 7.15625 4.753906 7.964844 5.160156 8.246094 C 5.988281 8.828125 6.875 7.738281 6.097656 7.089844 C 5.878906 6.90625 5.660156 6.875 5.355469 6.980469 Z M 6.207031 7.414062 C 6.261719 7.597656 5.921875 7.726562 5.769531 7.574219 C 5.703125 7.511719 5.695312 7.414062 5.738281 7.339844 C 5.835938 7.1875 6.140625 7.242188 6.207031 7.414062 Z M 6.207031 7.414062 "/>
<path style=" stroke:none;fill-rule:nonzero;fill:rgb(0%,0%,0%);fill-opacity:1;" d="M 6.820312 7.878906 C 6.675781 8.546875 6.011719 8.902344 5.277344 8.71875 C 4.894531 8.621094 4.480469 8.179688 4.480469 7.867188 C 4.480469 7.75 4.4375 7.660156 4.371094 7.660156 C 4.21875 7.660156 4.230469 8.265625 4.382812 8.558594 C 4.449219 8.6875 4.613281 8.902344 4.730469 9.042969 C 4.949219 9.269531 5.015625 9.28125 5.847656 9.214844 C 6.632812 9.160156 7.617188 9.25 8.097656 9.441406 C 8.242188 9.496094 8.304688 9.398438 8.414062 8.96875 C 8.480469 8.675781 8.511719 8.375 8.46875 8.308594 C 8.394531 8.191406 7.105469 7.554688 6.949219 7.554688 C 6.90625 7.554688 6.851562 7.695312 6.820312 7.878906 Z M 6.820312 7.878906 "/>
<path style=" stroke:none;fill-rule:nonzero;fill:rgb(0%,0%,0%);fill-opacity:1;" d="M 0.21875 8.191406 C 0.21875 8.503906 0.25 8.523438 1.148438 8.796875 C 2.699219 9.257812 3.824219 9.507812 4.230469 9.476562 L 4.613281 9.441406 L 4.382812 9.183594 C 4.261719 9.042969 4.132812 8.847656 4.097656 8.742188 C 4.066406 8.632812 3.921875 8.523438 3.792969 8.492188 C 2.785156 8.265625 0.675781 7.878906 0.46875 7.878906 C 0.261719 7.878906 0.21875 7.933594 0.21875 8.191406 Z M 0.21875 8.191406 "/>
<path style=" stroke:none;fill-rule:nonzero;fill:rgb(0%,0%,0%);fill-opacity:1;" d="M 0.242188 9.613281 C 0.261719 10.003906 0.316406 10.296875 0.382812 10.285156 C 0.449219 10.285156 1.179688 10.242188 2.023438 10.199219 C 3.433594 10.121094 3.824219 10.035156 3.824219 9.820312 C 3.824219 9.777344 3.59375 9.703125 3.3125 9.660156 C 3.015625 9.613281 2.316406 9.464844 1.75 9.3125 C 0.03125 8.859375 0.207031 8.816406 0.242188 9.613281 Z M 0.242188 9.613281 "/>
<path style=" stroke:none;fill-rule:nonzero;fill:rgb(0%,0%,0%);fill-opacity:1;" d="M 8.566406 9.691406 C 8.511719 9.9375 8.425781 10.015625 8.023438 10.121094 C 7.507812 10.261719 7.464844 10.46875 7.933594 10.46875 C 8.21875 10.46875 8.273438 10.597656 8.054688 10.769531 C 7.902344 10.898438 7.398438 10.824219 7.488281 10.683594 C 7.519531 10.640625 7.464844 10.574219 7.378906 10.53125 C 7.148438 10.445312 6.589844 11.179688 6.503906 11.664062 C 6.371094 12.410156 6.765625 13.121094 7.433594 13.359375 C 7.738281 13.46875 8.207031 13.316406 8.175781 13.121094 C 8.175781 13.058594 8.195312 12.917969 8.230469 12.808594 C 8.273438 12.710938 8.328125 12.5625 8.351562 12.476562 C 8.382812 12.386719 8.535156 12.300781 8.710938 12.28125 C 8.996094 12.25 9.015625 12.214844 8.996094 11.796875 C 8.984375 11.558594 8.875 11.160156 8.753906 10.921875 C 8.511719 10.457031 8.546875 10.359375 8.917969 10.359375 C 9.355469 10.359375 9.433594 9.703125 9.015625 9.519531 C 8.632812 9.34375 8.632812 9.34375 8.566406 9.691406 Z M 8.566406 9.691406 "/>
<path style=" stroke:none;fill-rule:nonzero;fill:rgb(0%,0%,0%);fill-opacity:1;" d="M 5.277344 9.59375 C 5.039062 9.636719 4.613281 9.765625 4.359375 9.886719 L 3.878906 10.089844 L 4.589844 10.15625 C 5.421875 10.21875 5.902344 10.425781 6.078125 10.769531 L 6.195312 11.019531 L 6.394531 10.714844 C 6.675781 10.296875 6.984375 10.058594 7.464844 9.90625 C 7.695312 9.839844 7.835938 9.746094 7.78125 9.691406 C 7.660156 9.570312 5.835938 9.496094 5.277344 9.59375 Z M 5.277344 9.59375 "/>
<path style=" stroke:none;fill-rule:nonzero;fill:rgb(0%,0%,0%);fill-opacity:1;" d="M 0.710938 10.566406 C 0.316406 10.617188 0.273438 10.660156 0.242188 10.953125 L 0.207031 11.289062 L 1.988281 11.417969 C 2.972656 11.492188 3.945312 11.578125 4.164062 11.613281 L 4.546875 11.675781 L 4.503906 11.277344 C 4.46875 11.007812 4.511719 10.824219 4.644531 10.683594 C 4.839844 10.46875 4.820312 10.46875 2.996094 10.476562 C 1.976562 10.488281 0.949219 10.53125 0.710938 10.566406 Z M 0.710938 10.566406 "/>
<path style=" stroke:none;fill-rule:nonzero;fill:rgb(0%,0%,0%);fill-opacity:1;" d="M 4.941406 10.8125 C 4.753906 10.996094 4.777344 11.386719 4.984375 11.589844 C 5.203125 11.816406 5.386719 11.804688 5.695312 11.558594 C 5.914062 11.386719 5.933594 11.308594 5.847656 11.050781 C 5.757812 10.8125 5.648438 10.726562 5.410156 10.703125 C 5.222656 10.683594 5.015625 10.738281 4.941406 10.8125 Z M 5.433594 11.179688 C 5.398438 11.210938 5.300781 11.222656 5.222656 11.191406 C 5.136719 11.160156 5.167969 11.125 5.289062 11.125 C 5.410156 11.113281 5.476562 11.148438 5.433594 11.179688 Z M 5.433594 11.179688 "/>
<path style=" stroke:none;fill-rule:nonzero;fill:rgb(0%,0%,0%);fill-opacity:1;" d="M 0.21875 12.355469 C 0.21875 12.746094 0.25 13.058594 0.296875 13.058594 C 0.339844 13.058594 0.839844 12.789062 1.433594 12.464844 C 2.011719 12.140625 2.546875 11.871094 2.601562 11.871094 C 2.667969 11.871094 2.753906 11.816406 2.785156 11.761719 C 2.832031 11.699219 2.382812 11.65625 1.539062 11.65625 L 0.21875 11.65625 Z M 0.21875 12.355469 "/>
<path style=" stroke:none;fill-rule:nonzero;fill:rgb(0%,0%,0%);fill-opacity:1;" d="M 2.460938 12.183594 C 2.097656 12.410156 1.453125 12.808594 1.039062 13.078125 C 0.382812 13.488281 0.242188 13.628906 0.132812 13.996094 C 0.0546875 14.234375 0 14.589844 0 14.773438 C 0 15.226562 0.21875 16.078125 0.339844 16.078125 C 0.382812 16.078125 0.558594 15.851562 0.730469 15.5625 C 1.167969 14.804688 2.710938 12.550781 2.832031 12.464844 C 2.894531 12.433594 3.050781 12.257812 3.167969 12.085938 C 3.496094 11.632812 3.257812 11.664062 2.460938 12.183594 Z M 2.460938 12.183594 "/>
<path style=" stroke:none;fill-rule:nonzero;fill:rgb(0%,0%,0%);fill-opacity:1;" d="M 5.824219 11.839844 C 5.605469 11.925781 5.660156 12.128906 6.023438 12.613281 C 6.371094 13.101562 6.613281 13.15625 6.296875 12.691406 C 6.195312 12.539062 6.121094 12.269531 6.121094 12.085938 C 6.121094 11.761719 6.078125 11.730469 5.824219 11.839844 Z M 5.824219 11.839844 "/>
<path style=" stroke:none;fill-rule:nonzero;fill:rgb(0%,0%,0%);fill-opacity:1;" d="M 3.367188 12.378906 C 2.480469 13.53125 1.488281 15.140625 0.742188 16.585938 C -0.0234375 18.085938 -0.03125 18.109375 0.140625 18.386719 C 0.25 18.539062 0.46875 18.734375 0.65625 18.832031 C 1.027344 19.023438 2.578125 19.285156 2.699219 19.175781 C 2.730469 19.132812 2.808594 18.484375 2.863281 17.71875 C 2.972656 15.980469 3.3125 14.191406 3.769531 12.886719 C 4.085938 12 4.109375 11.871094 3.945312 11.871094 C 3.847656 11.871094 3.585938 12.097656 3.367188 12.378906 Z M 3.367188 12.378906 "/>
<path style=" stroke:none;fill-rule:nonzero;fill:rgb(0%,0%,0%);fill-opacity:1;" d="M 4.230469 12.484375 C 3.78125 13.878906 3.617188 15.28125 3.605469 17.503906 L 3.605469 19.425781 L 4.523438 19.425781 C 5.824219 19.425781 6.777344 19.035156 7.214844 18.3125 C 7.539062 17.785156 7.488281 17.578125 6.90625 17.203125 C 6.296875 16.8125 5.550781 15.808594 5.300781 15.054688 C 5.058594 14.308594 4.886719 12.992188 4.972656 12.539062 C 5.050781 12.140625 4.929688 11.976562 4.566406 11.976562 C 4.449219 11.976562 4.339844 12.152344 4.230469 12.484375 Z M 4.230469 12.484375 "/>
<path style=" stroke:none;fill-rule:nonzero;fill:rgb(0%,0%,0%);fill-opacity:1;" d="M 5.148438 12.519531 C 5.148438 13.21875 5.398438 14.179688 5.804688 14.988281 C 6.414062 16.21875 7.714844 17.222656 8.394531 16.984375 C 8.785156 16.855469 9.289062 15.886719 9.289062 15.25 L 9.289062 14.773438 L 8.65625 14.847656 C 8.296875 14.882812 7.835938 14.859375 7.585938 14.796875 C 6.65625 14.546875 5.726562 13.617188 5.332031 12.539062 L 5.148438 12.03125 Z M 5.148438 12.519531 "/>
<path style=" stroke:none;fill-rule:nonzero;fill:rgb(0%,0%,0%);fill-opacity:1;" d="M 5.488281 12.421875 C 5.933594 13.726562 7.386719 14.75 8.339844 14.4375 C 8.851562 14.265625 8.917969 14.160156 8.566406 14.070312 C 8.394531 14.027344 8.152344 13.933594 8.03125 13.855469 C 7.914062 13.769531 7.683594 13.703125 7.507812 13.703125 C 7.34375 13.703125 7.027344 13.628906 6.820312 13.542969 C 6.40625 13.382812 5.683594 12.679688 5.683594 12.453125 C 5.683594 12.386719 5.605469 12.269531 5.519531 12.195312 C 5.378906 12.074219 5.378906 12.109375 5.488281 12.421875 Z M 5.488281 12.421875 "/>
</g>
</svg>
